<svg width="1652" height="1036" viewBox="0 0 1652 1036" fill="none" xmlns="http://www.w3.org/2000/svg">
<g filter="url(#filter0_dd_210_12)">
<rect width="1644" height="1028" transform="translate(4)" fill="#87BFDF"/>
<g filter="url(#filter1_d_210_12)">
<rect x="438" y="393" width="801" height="602" rx="29" fill="#4FA8FB"/>
<rect x="444" y="399" width="789" height="590" rx="23" stroke="#D5D3D3" stroke-width="12"/>
</g>
<g filter="url(#filter2_d_210_12)">
<mask id="path-3-inside-1_210_12" fill="white">
<path d="M508 493C508 479.193 519.193 468 533 468H679C692.807 468 704 479.193 704 493V584C704 597.807 692.807 609 679 609H533C519.193 609 508 597.807 508 584V493Z"/>
</mask>
<path d="M508 493C508 479.193 519.193 468 533 468H679C692.807 468 704 479.193 704 493V584C704 597.807 692.807 609 679 609H533C519.193 609 508 597.807 508 584V493Z" fill="black" fill-opacity="0.2" shape-rendering="crispEdges"/>
<path d="M508 468H704H508ZM704 609H508H704ZM508 609V468V609ZM679 468C695.569 468 709 481.431 709 498V579C709 595.569 695.569 609 679 609C690.046 609 699 597.807 699 584V493C699 479.193 690.046 468 679 468Z" fill="white" mask="url(#path-3-inside-1_210_12)"/>
</g>
<g filter="url(#filter3_d_210_12)">
<mask id="path-5-inside-2_210_12" fill="white">
<path d="M990 493C990 479.193 1001.19 468 1015 468H1161C1174.81 468 1186 479.193 1186 493V584C1186 597.807 1174.81 609 1161 609H1015C1001.19 609 990 597.807 990 584V493Z"/>
</mask>
<path d="M990 493C990 479.193 1001.19 468 1015 468H1161C1174.81 468 1186 479.193 1186 493V584C1186 597.807 1174.81 609 1161 609H1015C1001.19 609 990 597.807 990 584V493Z" fill="black" fill-opacity="0.2" shape-rendering="crispEdges"/>
<path d="M990 468H1186H990ZM1186 609H990H1186ZM1015 609C998.431 609 985 595.569 985 579V498C985 481.431 998.431 468 1015 468C1003.95 468 995 479.193 995 493V584C995 597.807 1003.95 609 1015 609ZM1186 468V609V468Z" fill="white" mask="url(#path-5-inside-2_210_12)"/>
</g>
<g filter="url(#filter4_d_210_12)">
<mask id="path-7-inside-3_210_12" fill="white">
<path d="M990 664C990 650.193 1001.19 639 1015 639H1161C1174.81 639 1186 650.193 1186 664V755C1186 768.807 1174.81 780 1161 780H1015C1001.19 780 990 768.807 990 755V664Z"/>
</mask>
<path d="M990 664C990 650.193 1001.19 639 1015 639H1161C1174.81 639 1186 650.193 1186 664V755C1186 768.807 1174.81 780 1161 780H1015C1001.19 780 990 768.807 990 755V664Z" fill="black" fill-opacity="0.2" shape-rendering="crispEdges"/>
<path d="M990 639H1186H990ZM1186 780H990H1186ZM1015 780C998.431 780 985 766.569 985 750V669C985 652.431 998.431 639 1015 639C1003.95 639 995 650.193 995 664V755C995 768.807 1003.95 780 1015 780ZM1186 639V780V639Z" fill="white" mask="url(#path-7-inside-3_210_12)"/>
</g>
<g filter="url(#filter5_d_210_12)">
<mask id="path-9-inside-4_210_12" fill="white">
<path d="M990 835C990 821.193 1001.19 810 1015 810H1161C1174.81 810 1186 821.193 1186 835V926C1186 939.807 1174.81 951 1161 951H1015C1001.19 951 990 939.807 990 926V835Z"/>
</mask>
<path d="M990 835C990 821.193 1001.19 810 1015 810H1161C1174.81 810 1186 821.193 1186 835V926C1186 939.807 1174.81 951 1161 951H1015C1001.19 951 990 939.807 990 926V835Z" fill="black" fill-opacity="0.2" shape-rendering="crispEdges"/>
<path d="M990 810H1186H990ZM1186 951H990H1186ZM1015 951C998.431 951 985 937.569 985 921V840C985 823.431 998.431 810 1015 810C1003.95 810 995 821.193 995 835V926C995 939.807 1003.95 951 1015 951ZM1186 810V951V810Z" fill="white" mask="url(#path-9-inside-4_210_12)"/>
</g>
<g filter="url(#filter6_d_210_12)">
<mask id="path-11-inside-5_210_12" fill="white">
<path d="M513 664C513 650.193 524.193 639 538 639H684C697.807 639 709 650.193 709 664V755C709 768.807 697.807 780 684 780H538C524.193 780 513 768.807 513 755V664Z"/>
</mask>
<path d="M513 664C513 650.193 524.193 639 538 639H684C697.807 639 709 650.193 709 664V755C709 768.807 697.807 780 684 780H538C524.193 780 513 768.807 513 755V664Z" fill="black" fill-opacity="0.2" shape-rendering="crispEdges"/>
<path d="M513 639H709H513ZM709 780H513H709ZM513 780V639V780ZM684 639C700.569 639 714 652.431 714 669V750C714 766.569 700.569 780 684 780C695.046 780 704 768.807 704 755V664C704 650.193 695.046 639 684 639Z" fill="white" mask="url(#path-11-inside-5_210_12)"/>
</g>
<g filter="url(#filter7_d_210_12)">
<mask id="path-13-inside-6_210_12" fill="white">
<path d="M513 835C513 821.193 524.193 810 538 810H684C697.807 810 709 821.193 709 835V926C709 939.807 697.807 951 684 951H538C524.193 951 513 939.807 513 926V835Z"/>
</mask>
<path d="M513 835C513 821.193 524.193 810 538 810H684C697.807 810 709 821.193 709 835V926C709 939.807 697.807 951 684 951H538C524.193 951 513 939.807 513 926V835Z" fill="black" fill-opacity="0.2" shape-rendering="crispEdges"/>
<path d="M513 810H709H513ZM709 951H513H709ZM513 951V810V951ZM684 810C700.569 810 714 823.431 714 840V921C714 937.569 700.569 951 684 951C695.046 951 704 939.807 704 926V835C704 821.193 695.046 810 684 810Z" fill="white" mask="url(#path-13-inside-6_210_12)"/>
</g>
<g filter="url(#filter8_d_210_12)">
<g filter="url(#filter9_d_210_12)">
<mask id="path-15-inside-7_210_12" fill="white">
<path d="M740 493C740 479.193 751.193 468 765 468H911C924.807 468 936 479.193 936 493V584C936 597.807 924.807 609 911 609H765C751.193 609 740 597.807 740 584V493Z"/>
</mask>
<path d="M740 493C740 479.193 751.193 468 765 468H911C924.807 468 936 479.193 936 493V584C936 597.807 924.807 609 911 609H765C751.193 609 740 597.807 740 584V493Z" fill="black" fill-opacity="0.2" shape-rendering="crispEdges"/>
<path d="M740 468H936H740ZM936 609H740H936ZM765 609C748.431 609 735 595.569 735 579V498C735 481.431 748.431 468 765 468C753.954 468 745 479.193 745 493V584C745 597.807 753.954 609 765 609ZM911 468C928.121 468 942 481.879 942 499V578C942 595.121 928.121 609 911 609C921.493 609 930 597.807 930 584V493C930 479.193 921.493 468 911 468Z" fill="white" mask="url(#path-15-inside-7_210_12)"/>
</g>
</g>
<g filter="url(#filter10_d_210_12)">
<g filter="url(#filter11_d_210_12)">
<mask id="path-17-inside-8_210_12" fill="white">
<path d="M740 664C740 650.193 751.193 639 765 639H911C924.807 639 936 650.193 936 664V755C936 768.807 924.807 780 911 780H765C751.193 780 740 768.807 740 755V664Z"/>
</mask>
<path d="M740 664C740 650.193 751.193 639 765 639H911C924.807 639 936 650.193 936 664V755C936 768.807 924.807 780 911 780H765C751.193 780 740 768.807 740 755V664Z" fill="black" fill-opacity="0.2" shape-rendering="crispEdges"/>
<path d="M740 639H936H740ZM936 780H740H936ZM765 780C748.431 780 735 766.569 735 750V669C735 652.431 748.431 639 765 639C753.954 639 745 650.193 745 664V755C745 768.807 753.954 780 765 780ZM911 639C928.121 639 942 652.879 942 670V749C942 766.121 928.121 780 911 780C921.493 780 930 768.807 930 755V664C930 650.193 921.493 639 911 639Z" fill="white" mask="url(#path-17-inside-8_210_12)"/>
</g>
</g>
<g filter="url(#filter12_d_210_12)">
<g filter="url(#filter13_d_210_12)">
<mask id="path-19-inside-9_210_12" fill="white">
<path d="M740 835C740 821.193 751.193 810 765 810H911C924.807 810 936 821.193 936 835V926C936 939.807 924.807 951 911 951H765C751.193 951 740 939.807 740 926V835Z"/>
</mask>
<path d="M740 835C740 821.193 751.193 810 765 810H911C924.807 810 936 821.193 936 835V926C936 939.807 924.807 951 911 951H765C751.193 951 740 939.807 740 926V835Z" fill="black" fill-opacity="0.2" shape-rendering="crispEdges"/>
<path d="M740 810H936H740ZM936 951H740H936ZM765 951C748.431 951 735 937.569 735 921V840C735 823.431 748.431 810 765 810C753.954 810 745 821.193 745 835V926C745 939.807 753.954 951 765 951ZM911 810C928.121 810 942 823.879 942 841V920C942 937.121 928.121 951 911 951C921.493 951 930 939.807 930 926V835C930 821.193 921.493 810 911 810Z" fill="white" mask="url(#path-19-inside-9_210_12)"/>
</g>
</g>
<g filter="url(#filter14_d_210_12)">
<rect x="429" y="48" width="810" height="247" rx="24" fill="#4FA8FB"/>
<rect x="434" y="53" width="800" height="237" rx="19" stroke="#D4D3D3" stroke-width="10"/>
</g>
<path d="M563.391 167.125V190H560.5V170.734L554.672 172.859V170.25L562.938 167.125H563.391Z" fill="white"/>
<path d="M1124.11 188.203H1126.17C1127.18 188.203 1128.02 188.036 1128.67 187.703C1129.34 187.359 1129.83 186.896 1130.16 186.312C1130.49 185.719 1130.66 185.052 1130.66 184.312C1130.66 183.438 1130.51 182.703 1130.22 182.109C1129.93 181.516 1129.49 181.068 1128.91 180.766C1128.32 180.464 1127.58 180.312 1126.69 180.312C1125.88 180.312 1125.16 180.474 1124.53 180.797C1123.92 181.109 1123.43 181.557 1123.08 182.141C1122.73 182.724 1122.56 183.411 1122.56 184.203H1119.67C1119.67 183.047 1119.96 181.995 1120.55 181.047C1121.13 180.099 1121.95 179.344 1123 178.781C1124.06 178.219 1125.29 177.938 1126.69 177.938C1128.06 177.938 1129.27 178.182 1130.3 178.672C1131.33 179.151 1132.13 179.87 1132.7 180.828C1133.28 181.776 1133.56 182.958 1133.56 184.375C1133.56 184.948 1133.43 185.562 1133.16 186.219C1132.9 186.865 1132.48 187.469 1131.92 188.031C1131.37 188.594 1130.65 189.057 1129.77 189.422C1128.88 189.776 1127.82 189.953 1126.58 189.953H1124.11V188.203ZM1124.11 190.578V188.844H1126.58C1128.03 188.844 1129.22 189.016 1130.17 189.359C1131.12 189.703 1131.86 190.161 1132.41 190.734C1132.96 191.307 1133.34 191.938 1133.56 192.625C1133.79 193.302 1133.91 193.979 1133.91 194.656C1133.91 195.719 1133.72 196.661 1133.36 197.484C1133.01 198.307 1132.5 199.005 1131.84 199.578C1131.2 200.151 1130.44 200.583 1129.56 200.875C1128.69 201.167 1127.73 201.312 1126.7 201.312C1125.71 201.312 1124.78 201.172 1123.91 200.891C1123.04 200.609 1122.28 200.203 1121.61 199.672C1120.94 199.13 1120.42 198.469 1120.05 197.688C1119.67 196.896 1119.48 195.995 1119.48 194.984H1122.38C1122.38 195.776 1122.55 196.469 1122.89 197.062C1123.24 197.656 1123.74 198.12 1124.39 198.453C1125.05 198.776 1125.82 198.938 1126.7 198.938C1127.59 198.938 1128.35 198.786 1128.98 198.484C1129.63 198.172 1130.12 197.703 1130.47 197.078C1130.82 196.453 1131 195.667 1131 194.719C1131 193.771 1130.8 192.995 1130.41 192.391C1130.01 191.776 1129.45 191.323 1128.72 191.031C1128 190.729 1127.15 190.578 1126.17 190.578H1124.11Z" fill="white"/>
<path d="M543.984 126.547L550.688 107.25H553.953L545.531 130H543.203L543.984 126.547ZM537.719 107.25L544.359 126.547L545.188 130H542.859L534.453 107.25H537.719ZM555.094 121.734V121.375C555.094 120.156 555.271 119.026 555.625 117.984C555.979 116.932 556.49 116.021 557.156 115.25C557.823 114.469 558.63 113.865 559.578 113.438C560.526 113 561.589 112.781 562.766 112.781C563.953 112.781 565.021 113 565.969 113.438C566.927 113.865 567.74 114.469 568.406 115.25C569.083 116.021 569.599 116.932 569.953 117.984C570.307 119.026 570.484 120.156 570.484 121.375V121.734C570.484 122.953 570.307 124.083 569.953 125.125C569.599 126.167 569.083 127.078 568.406 127.859C567.74 128.63 566.932 129.234 565.984 129.672C565.047 130.099 563.984 130.312 562.797 130.312C561.609 130.312 560.542 130.099 559.594 129.672C558.646 129.234 557.833 128.63 557.156 127.859C556.49 127.078 555.979 126.167 555.625 125.125C555.271 124.083 555.094 122.953 555.094 121.734ZM557.984 121.375V121.734C557.984 122.578 558.083 123.375 558.281 124.125C558.479 124.865 558.776 125.521 559.172 126.094C559.578 126.667 560.083 127.12 560.688 127.453C561.292 127.776 561.995 127.938 562.797 127.938C563.589 127.938 564.281 127.776 564.875 127.453C565.479 127.12 565.979 126.667 566.375 126.094C566.771 125.521 567.068 124.865 567.266 124.125C567.474 123.375 567.578 122.578 567.578 121.734V121.375C567.578 120.542 567.474 119.755 567.266 119.016C567.068 118.266 566.766 117.604 566.359 117.031C565.964 116.448 565.464 115.99 564.859 115.656C564.266 115.323 563.568 115.156 562.766 115.156C561.974 115.156 561.276 115.323 560.672 115.656C560.078 115.99 559.578 116.448 559.172 117.031C558.776 117.604 558.479 118.266 558.281 119.016C558.083 119.755 557.984 120.542 557.984 121.375ZM580.875 127.938C581.562 127.938 582.198 127.797 582.781 127.516C583.365 127.234 583.844 126.849 584.219 126.359C584.594 125.859 584.807 125.292 584.859 124.656H587.609C587.557 125.656 587.219 126.589 586.594 127.453C585.979 128.307 585.172 129 584.172 129.531C583.172 130.052 582.073 130.312 580.875 130.312C579.604 130.312 578.495 130.089 577.547 129.641C576.609 129.193 575.828 128.578 575.203 127.797C574.589 127.016 574.125 126.12 573.812 125.109C573.51 124.089 573.359 123.01 573.359 121.875V121.219C573.359 120.083 573.51 119.01 573.812 118C574.125 116.979 574.589 116.078 575.203 115.297C575.828 114.516 576.609 113.901 577.547 113.453C578.495 113.005 579.604 112.781 580.875 112.781C582.198 112.781 583.354 113.052 584.344 113.594C585.333 114.125 586.109 114.854 586.672 115.781C587.245 116.698 587.557 117.74 587.609 118.906H584.859C584.807 118.208 584.609 117.578 584.266 117.016C583.932 116.453 583.474 116.005 582.891 115.672C582.318 115.328 581.646 115.156 580.875 115.156C579.99 115.156 579.245 115.333 578.641 115.688C578.047 116.031 577.573 116.5 577.219 117.094C576.875 117.677 576.625 118.328 576.469 119.047C576.323 119.755 576.25 120.479 576.25 121.219V121.875C576.25 122.615 576.323 123.344 576.469 124.062C576.615 124.781 576.859 125.432 577.203 126.016C577.557 126.599 578.031 127.068 578.625 127.422C579.229 127.766 579.979 127.938 580.875 127.938ZM597.875 130.312C596.698 130.312 595.63 130.115 594.672 129.719C593.724 129.312 592.906 128.745 592.219 128.016C591.542 127.286 591.021 126.422 590.656 125.422C590.292 124.422 590.109 123.328 590.109 122.141V121.484C590.109 120.109 590.312 118.885 590.719 117.812C591.125 116.729 591.677 115.812 592.375 115.062C593.073 114.312 593.865 113.745 594.75 113.359C595.635 112.974 596.552 112.781 597.5 112.781C598.708 112.781 599.75 112.99 600.625 113.406C601.51 113.823 602.234 114.406 602.797 115.156C603.359 115.896 603.776 116.771 604.047 117.781C604.318 118.781 604.453 119.875 604.453 121.062V122.359H591.828V120H601.562V119.781C601.521 119.031 601.365 118.302 601.094 117.594C600.833 116.885 600.417 116.302 599.844 115.844C599.271 115.385 598.49 115.156 597.5 115.156C596.844 115.156 596.24 115.297 595.688 115.578C595.135 115.849 594.661 116.255 594.266 116.797C593.87 117.339 593.562 118 593.344 118.781C593.125 119.562 593.016 120.464 593.016 121.484V122.141C593.016 122.943 593.125 123.698 593.344 124.406C593.573 125.104 593.901 125.719 594.328 126.25C594.766 126.781 595.292 127.198 595.906 127.5C596.531 127.802 597.24 127.953 598.031 127.953C599.052 127.953 599.917 127.745 600.625 127.328C601.333 126.911 601.953 126.354 602.484 125.656L604.234 127.047C603.87 127.599 603.406 128.125 602.844 128.625C602.281 129.125 601.589 129.531 600.766 129.844C599.953 130.156 598.99 130.312 597.875 130.312Z" fill="black"/>
<path d="M1054.38 133.766H1057.38C1057.22 135.203 1056.81 136.49 1056.14 137.625C1055.47 138.76 1054.53 139.661 1053.31 140.328C1052.09 140.984 1050.57 141.312 1048.75 141.312C1047.42 141.312 1046.2 141.062 1045.11 140.562C1044.03 140.062 1043.09 139.354 1042.31 138.438C1041.53 137.51 1040.93 136.401 1040.5 135.109C1040.08 133.807 1039.88 132.359 1039.88 130.766V128.5C1039.88 126.906 1040.08 125.464 1040.5 124.172C1040.93 122.87 1041.54 121.755 1042.33 120.828C1043.13 119.901 1044.09 119.188 1045.22 118.688C1046.34 118.188 1047.61 117.938 1049.02 117.938C1050.73 117.938 1052.19 118.26 1053.38 118.906C1054.56 119.552 1055.48 120.448 1056.14 121.594C1056.81 122.729 1057.22 124.047 1057.38 125.547H1054.38C1054.23 124.484 1053.96 123.573 1053.56 122.812C1053.17 122.042 1052.6 121.448 1051.88 121.031C1051.15 120.615 1050.19 120.406 1049.02 120.406C1048.01 120.406 1047.11 120.599 1046.34 120.984C1045.58 121.37 1044.94 121.917 1044.42 122.625C1043.91 123.333 1043.53 124.182 1043.27 125.172C1043.01 126.161 1042.88 127.26 1042.88 128.469V130.766C1042.88 131.88 1042.99 132.927 1043.22 133.906C1043.46 134.885 1043.82 135.745 1044.3 136.484C1044.78 137.224 1045.39 137.807 1046.12 138.234C1046.86 138.651 1047.74 138.859 1048.75 138.859C1050.03 138.859 1051.05 138.656 1051.81 138.25C1052.57 137.844 1053.15 137.26 1053.53 136.5C1053.93 135.74 1054.21 134.828 1054.38 133.766ZM1060.28 132.734V132.375C1060.28 131.156 1060.46 130.026 1060.81 128.984C1061.17 127.932 1061.68 127.021 1062.34 126.25C1063.01 125.469 1063.82 124.865 1064.77 124.438C1065.71 124 1066.78 123.781 1067.95 123.781C1069.14 123.781 1070.21 124 1071.16 124.438C1072.11 124.865 1072.93 125.469 1073.59 126.25C1074.27 127.021 1074.79 127.932 1075.14 128.984C1075.49 130.026 1075.67 131.156 1075.67 132.375V132.734C1075.67 133.953 1075.49 135.083 1075.14 136.125C1074.79 137.167 1074.27 138.078 1073.59 138.859C1072.93 139.63 1072.12 140.234 1071.17 140.672C1070.23 141.099 1069.17 141.312 1067.98 141.312C1066.8 141.312 1065.73 141.099 1064.78 140.672C1063.83 140.234 1063.02 139.63 1062.34 138.859C1061.68 138.078 1061.17 137.167 1060.81 136.125C1060.46 135.083 1060.28 133.953 1060.28 132.734ZM1063.17 132.375V132.734C1063.17 133.578 1063.27 134.375 1063.47 135.125C1063.67 135.865 1063.96 136.521 1064.36 137.094C1064.77 137.667 1065.27 138.12 1065.88 138.453C1066.48 138.776 1067.18 138.938 1067.98 138.938C1068.78 138.938 1069.47 138.776 1070.06 138.453C1070.67 138.12 1071.17 137.667 1071.56 137.094C1071.96 136.521 1072.26 135.865 1072.45 135.125C1072.66 134.375 1072.77 133.578 1072.77 132.734V132.375C1072.77 131.542 1072.66 130.755 1072.45 130.016C1072.26 129.266 1071.95 128.604 1071.55 128.031C1071.15 127.448 1070.65 126.99 1070.05 126.656C1069.45 126.323 1068.76 126.156 1067.95 126.156C1067.16 126.156 1066.46 126.323 1065.86 126.656C1065.27 126.99 1064.77 127.448 1064.36 128.031C1063.96 128.604 1063.67 129.266 1063.47 130.016C1063.27 130.755 1063.17 131.542 1063.17 132.375ZM1082.17 127.453V141H1079.27V124.094H1082.02L1082.17 127.453ZM1081.58 131.906L1080.23 131.859C1080.24 130.703 1080.4 129.635 1080.69 128.656C1080.98 127.667 1081.41 126.807 1081.98 126.078C1082.56 125.349 1083.27 124.786 1084.12 124.391C1084.98 123.984 1085.97 123.781 1087.09 123.781C1087.89 123.781 1088.61 123.896 1089.28 124.125C1089.95 124.344 1090.53 124.693 1091.02 125.172C1091.51 125.651 1091.89 126.266 1092.16 127.016C1092.43 127.766 1092.56 128.672 1092.56 129.734V141H1089.67V129.875C1089.67 128.99 1089.52 128.281 1089.22 127.75C1088.93 127.219 1088.51 126.833 1087.97 126.594C1087.43 126.344 1086.79 126.219 1086.06 126.219C1085.21 126.219 1084.49 126.37 1083.92 126.672C1083.35 126.974 1082.89 127.391 1082.55 127.922C1082.2 128.453 1081.95 129.062 1081.8 129.75C1081.65 130.427 1081.58 131.146 1081.58 131.906ZM1092.53 130.312L1090.59 130.906C1090.6 129.979 1090.76 129.089 1091.05 128.234C1091.35 127.38 1091.78 126.62 1092.34 125.953C1092.92 125.286 1093.62 124.76 1094.45 124.375C1095.29 123.979 1096.24 123.781 1097.31 123.781C1098.22 123.781 1099.02 123.901 1099.72 124.141C1100.43 124.38 1101.02 124.75 1101.5 125.25C1101.99 125.74 1102.36 126.37 1102.61 127.141C1102.86 127.911 1102.98 128.828 1102.98 129.891V141H1100.08V129.859C1100.08 128.911 1099.93 128.177 1099.62 127.656C1099.33 127.125 1098.92 126.755 1098.38 126.547C1097.84 126.328 1097.21 126.219 1096.47 126.219C1095.83 126.219 1095.27 126.328 1094.78 126.547C1094.29 126.766 1093.88 127.068 1093.55 127.453C1093.21 127.828 1092.96 128.26 1092.78 128.75C1092.61 129.24 1092.53 129.76 1092.53 130.312ZM1110.25 127.344V147.5H1107.34V124.094H1110L1110.25 127.344ZM1121.64 132.406V132.734C1121.64 133.964 1121.49 135.104 1121.2 136.156C1120.91 137.198 1120.48 138.104 1119.92 138.875C1119.37 139.646 1118.69 140.245 1117.88 140.672C1117.06 141.099 1116.13 141.312 1115.08 141.312C1114.01 141.312 1113.06 141.135 1112.23 140.781C1111.41 140.427 1110.71 139.911 1110.14 139.234C1109.57 138.557 1109.11 137.745 1108.77 136.797C1108.43 135.849 1108.2 134.781 1108.08 133.594V131.844C1108.2 130.594 1108.44 129.474 1108.78 128.484C1109.12 127.495 1109.58 126.651 1110.14 125.953C1110.71 125.245 1111.41 124.708 1112.22 124.344C1113.03 123.969 1113.97 123.781 1115.03 123.781C1116.09 123.781 1117.04 123.99 1117.86 124.406C1118.68 124.812 1119.38 125.396 1119.94 126.156C1120.5 126.917 1120.92 127.828 1121.2 128.891C1121.49 129.943 1121.64 131.115 1121.64 132.406ZM1118.73 132.734V132.406C1118.73 131.562 1118.65 130.771 1118.47 130.031C1118.29 129.281 1118.02 128.625 1117.64 128.062C1117.28 127.49 1116.81 127.042 1116.23 126.719C1115.66 126.385 1114.98 126.219 1114.19 126.219C1113.46 126.219 1112.82 126.344 1112.28 126.594C1111.75 126.844 1111.3 127.182 1110.92 127.609C1110.55 128.026 1110.24 128.505 1110 129.047C1109.77 129.578 1109.6 130.13 1109.48 130.703V134.75C1109.69 135.479 1109.98 136.167 1110.36 136.812C1110.73 137.448 1111.23 137.964 1111.86 138.359C1112.48 138.745 1113.27 138.938 1114.22 138.938C1115 138.938 1115.67 138.776 1116.23 138.453C1116.81 138.12 1117.28 137.667 1117.64 137.094C1118.02 136.521 1118.29 135.865 1118.47 135.125C1118.65 134.375 1118.73 133.578 1118.73 132.734ZM1135.67 137.094V124.094H1138.58V141H1135.81L1135.67 137.094ZM1136.22 133.531L1137.42 133.5C1137.42 134.625 1137.3 135.667 1137.06 136.625C1136.83 137.573 1136.46 138.396 1135.94 139.094C1135.42 139.792 1134.73 140.339 1133.89 140.734C1133.05 141.12 1132.02 141.312 1130.81 141.312C1129.99 141.312 1129.23 141.193 1128.55 140.953C1127.87 140.714 1127.29 140.344 1126.8 139.844C1126.31 139.344 1125.93 138.693 1125.66 137.891C1125.4 137.089 1125.27 136.125 1125.27 135V124.094H1128.16V135.031C1128.16 135.792 1128.24 136.422 1128.41 136.922C1128.58 137.411 1128.82 137.802 1129.11 138.094C1129.41 138.375 1129.74 138.573 1130.11 138.688C1130.48 138.802 1130.87 138.859 1131.27 138.859C1132.49 138.859 1133.47 138.625 1134.19 138.156C1134.91 137.677 1135.42 137.036 1135.73 136.234C1136.06 135.422 1136.22 134.521 1136.22 133.531ZM1150.06 124.094V126.312H1140.92V124.094H1150.06ZM1144.02 119.984H1146.91V136.812C1146.91 137.385 1146.99 137.818 1147.17 138.109C1147.35 138.401 1147.58 138.594 1147.86 138.688C1148.14 138.781 1148.44 138.828 1148.77 138.828C1149.01 138.828 1149.26 138.807 1149.52 138.766C1149.79 138.714 1149.99 138.672 1150.12 138.641L1150.14 141C1149.91 141.073 1149.61 141.141 1149.23 141.203C1148.87 141.276 1148.43 141.312 1147.91 141.312C1147.2 141.312 1146.55 141.172 1145.95 140.891C1145.36 140.609 1144.89 140.141 1144.53 139.484C1144.19 138.818 1144.02 137.922 1144.02 136.797V119.984ZM1163.42 138.109V129.406C1163.42 128.74 1163.29 128.161 1163.02 127.672C1162.76 127.172 1162.36 126.786 1161.83 126.516C1161.3 126.245 1160.64 126.109 1159.86 126.109C1159.13 126.109 1158.49 126.234 1157.94 126.484C1157.4 126.734 1156.97 127.062 1156.66 127.469C1156.35 127.875 1156.2 128.312 1156.2 128.781H1153.31C1153.31 128.177 1153.47 127.578 1153.78 126.984C1154.09 126.391 1154.54 125.854 1155.12 125.375C1155.72 124.885 1156.43 124.5 1157.25 124.219C1158.08 123.927 1159.01 123.781 1160.03 123.781C1161.26 123.781 1162.34 123.99 1163.28 124.406C1164.23 124.823 1164.97 125.453 1165.5 126.297C1166.04 127.13 1166.31 128.177 1166.31 129.438V137.312C1166.31 137.875 1166.36 138.474 1166.45 139.109C1166.56 139.745 1166.71 140.292 1166.91 140.75V141H1163.89C1163.74 140.667 1163.63 140.224 1163.55 139.672C1163.46 139.109 1163.42 138.589 1163.42 138.109ZM1163.92 130.75L1163.95 132.781H1161.03C1160.21 132.781 1159.47 132.849 1158.83 132.984C1158.18 133.109 1157.64 133.302 1157.2 133.562C1156.77 133.823 1156.43 134.151 1156.2 134.547C1155.97 134.932 1155.86 135.385 1155.86 135.906C1155.86 136.438 1155.98 136.922 1156.22 137.359C1156.46 137.797 1156.82 138.146 1157.3 138.406C1157.79 138.656 1158.39 138.781 1159.09 138.781C1159.98 138.781 1160.76 138.594 1161.44 138.219C1162.11 137.844 1162.65 137.385 1163.05 136.844C1163.45 136.302 1163.67 135.776 1163.7 135.266L1164.94 136.656C1164.86 137.094 1164.67 137.578 1164.34 138.109C1164.02 138.641 1163.59 139.151 1163.05 139.641C1162.52 140.12 1161.88 140.521 1161.14 140.844C1160.41 141.156 1159.59 141.312 1158.67 141.312C1157.53 141.312 1156.52 141.089 1155.66 140.641C1154.8 140.193 1154.14 139.594 1153.66 138.844C1153.19 138.083 1152.95 137.234 1152.95 136.297C1152.95 135.391 1153.13 134.594 1153.48 133.906C1153.84 133.208 1154.35 132.63 1155.02 132.172C1155.68 131.703 1156.48 131.349 1157.42 131.109C1158.36 130.87 1159.41 130.75 1160.56 130.75H1163.92ZM1181.52 137.719V117H1184.42V141H1181.77L1181.52 137.719ZM1170.14 132.734V132.406C1170.14 131.115 1170.3 129.943 1170.61 128.891C1170.93 127.828 1171.39 126.917 1171.97 126.156C1172.56 125.396 1173.27 124.812 1174.08 124.406C1174.9 123.99 1175.82 123.781 1176.83 123.781C1177.89 123.781 1178.82 123.969 1179.61 124.344C1180.41 124.708 1181.09 125.245 1181.64 125.953C1182.2 126.651 1182.65 127.495 1182.97 128.484C1183.29 129.474 1183.52 130.594 1183.64 131.844V133.281C1183.53 134.521 1183.3 135.635 1182.97 136.625C1182.65 137.615 1182.2 138.458 1181.64 139.156C1181.09 139.854 1180.41 140.391 1179.61 140.766C1178.81 141.13 1177.87 141.312 1176.8 141.312C1175.81 141.312 1174.9 141.099 1174.08 140.672C1173.27 140.245 1172.56 139.646 1171.97 138.875C1171.39 138.104 1170.93 137.198 1170.61 136.156C1170.3 135.104 1170.14 133.964 1170.14 132.734ZM1173.05 132.406V132.734C1173.05 133.578 1173.13 134.37 1173.3 135.109C1173.47 135.849 1173.74 136.5 1174.11 137.062C1174.47 137.625 1174.94 138.068 1175.5 138.391C1176.06 138.703 1176.73 138.859 1177.52 138.859C1178.47 138.859 1179.26 138.656 1179.88 138.25C1180.5 137.844 1181 137.307 1181.38 136.641C1181.75 135.974 1182.04 135.25 1182.25 134.469V130.703C1182.12 130.13 1181.94 129.578 1181.7 129.047C1181.47 128.505 1181.17 128.026 1180.8 127.609C1180.43 127.182 1179.98 126.844 1179.44 126.594C1178.91 126.344 1178.28 126.219 1177.55 126.219C1176.76 126.219 1176.07 126.385 1175.5 126.719C1174.94 127.042 1174.47 127.49 1174.11 128.062C1173.74 128.625 1173.47 129.281 1173.3 130.031C1173.13 130.771 1173.05 131.562 1173.05 132.406ZM1188.16 132.734V132.375C1188.16 131.156 1188.33 130.026 1188.69 128.984C1189.04 127.932 1189.55 127.021 1190.22 126.25C1190.89 125.469 1191.69 124.865 1192.64 124.438C1193.59 124 1194.65 123.781 1195.83 123.781C1197.02 123.781 1198.08 124 1199.03 124.438C1199.99 124.865 1200.8 125.469 1201.47 126.25C1202.15 127.021 1202.66 127.932 1203.02 128.984C1203.37 130.026 1203.55 131.156 1203.55 132.375V132.734C1203.55 133.953 1203.37 135.083 1203.02 136.125C1202.66 137.167 1202.15 138.078 1201.47 138.859C1200.8 139.63 1199.99 140.234 1199.05 140.672C1198.11 141.099 1197.05 141.312 1195.86 141.312C1194.67 141.312 1193.6 141.099 1192.66 140.672C1191.71 140.234 1190.9 139.63 1190.22 138.859C1189.55 138.078 1189.04 137.167 1188.69 136.125C1188.33 135.083 1188.16 133.953 1188.16 132.734ZM1191.05 132.375V132.734C1191.05 133.578 1191.15 134.375 1191.34 135.125C1191.54 135.865 1191.84 136.521 1192.23 137.094C1192.64 137.667 1193.15 138.12 1193.75 138.453C1194.35 138.776 1195.06 138.938 1195.86 138.938C1196.65 138.938 1197.34 138.776 1197.94 138.453C1198.54 138.12 1199.04 137.667 1199.44 137.094C1199.83 136.521 1200.13 135.865 1200.33 135.125C1200.54 134.375 1200.64 133.578 1200.64 132.734V132.375C1200.64 131.542 1200.54 130.755 1200.33 130.016C1200.13 129.266 1199.83 128.604 1199.42 128.031C1199.03 127.448 1198.53 126.99 1197.92 126.656C1197.33 126.323 1196.63 126.156 1195.83 126.156C1195.04 126.156 1194.34 126.323 1193.73 126.656C1193.14 126.99 1192.64 127.448 1192.23 128.031C1191.84 128.604 1191.54 129.266 1191.34 130.016C1191.15 130.755 1191.05 131.542 1191.05 132.375ZM1210.06 126.75V141H1207.17V124.094H1209.98L1210.06 126.75ZM1215.34 124L1215.33 126.688C1215.09 126.635 1214.86 126.604 1214.64 126.594C1214.43 126.573 1214.19 126.562 1213.92 126.562C1213.26 126.562 1212.67 126.667 1212.16 126.875C1211.65 127.083 1211.21 127.375 1210.86 127.75C1210.51 128.125 1210.22 128.573 1210.02 129.094C1209.82 129.604 1209.69 130.167 1209.62 130.781L1208.81 131.25C1208.81 130.229 1208.91 129.271 1209.11 128.375C1209.32 127.479 1209.64 126.688 1210.06 126C1210.49 125.302 1211.03 124.76 1211.69 124.375C1212.35 123.979 1213.15 123.781 1214.06 123.781C1214.27 123.781 1214.51 123.807 1214.78 123.859C1215.05 123.901 1215.24 123.948 1215.34 124Z" fill="black"/>
</g>
<defs>
<filter id="filter0_dd_210_12" x="0" y="0" width="1652" height="1036" filterUnits="userSpaceOnUse" color-interpolation-filters="sRGB">
<feFlood flood-opacity="0" result="BackgroundImageFix"/>
<feColorMatrix in="SourceAlpha" type="matrix" values="0 0 0 0 0 0 0 0 0 0 0 0 0 0 0 0 0 0 127 0" result="hardAlpha"/>
<feOffset dy="4"/>
<feGaussianBlur stdDeviation="2"/>
<feComposite in2="hardAlpha" operator="out"/>
<feColorMatrix type="matrix" values="0 0 0 0 0 0 0 0 0 0 0 0 0 0 0 0 0 0 0.25 0"/>
<feBlend mode="normal" in2="BackgroundImageFix" result="effect1_dropShadow_210_12"/>
<feColorMatrix in="SourceAlpha" type="matrix" values="0 0 0 0 0 0 0 0 0 0 0 0 0 0 0 0 0 0 127 0" result="hardAlpha"/>
<feOffset dy="4"/>
<feGaussianBlur stdDeviation="2"/>
<feComposite in2="hardAlpha" operator="out"/>
<feColorMatrix type="matrix" values="0 0 0 0 0 0 0 0 0 0 0 0 0 0 0 0 0 0 0.25 0"/>
<feBlend mode="normal" in2="effect1_dropShadow_210_12" result="effect2_dropShadow_210_12"/>
<feBlend mode="normal" in="SourceGraphic" in2="effect2_dropShadow_210_12" result="shape"/>
</filter>
<filter id="filter1_d_210_12" x="434" y="393" width="809" height="621" filterUnits="userSpaceOnUse" color-interpolation-filters="sRGB">
<feFlood flood-opacity="0" result="BackgroundImageFix"/>
<feColorMatrix in="SourceAlpha" type="matrix" values="0 0 0 0 0 0 0 0 0 0 0 0 0 0 0 0 0 0 127 0" result="hardAlpha"/>
<feOffset dy="15"/>
<feGaussianBlur stdDeviation="2"/>
<feComposite in2="hardAlpha" operator="out"/>
<feColorMatrix type="matrix" values="0 0 0 0 0 0 0 0 0 0 0 0 0 0 0 0 0 0 0.25 0"/>
<feBlend mode="normal" in2="BackgroundImageFix" result="effect1_dropShadow_210_12"/>
<feBlend mode="normal" in="SourceGraphic" in2="effect1_dropShadow_210_12" result="shape"/>
</filter>
<filter id="filter2_d_210_12" x="504" y="468" width="204" height="149" filterUnits="userSpaceOnUse" color-interpolation-filters="sRGB">
<feFlood flood-opacity="0" result="BackgroundImageFix"/>
<feColorMatrix in="SourceAlpha" type="matrix" values="0 0 0 0 0 0 0 0 0 0 0 0 0 0 0 0 0 0 127 0" result="hardAlpha"/>
<feOffset dy="4"/>
<feGaussianBlur stdDeviation="2"/>
<feComposite in2="hardAlpha" operator="out"/>
<feColorMatrix type="matrix" values="0 0 0 0 0 0 0 0 0 0 0 0 0 0 0 0 0 0 0.25 0"/>
<feBlend mode="normal" in2="BackgroundImageFix" result="effect1_dropShadow_210_12"/>
<feBlend mode="normal" in="SourceGraphic" in2="effect1_dropShadow_210_12" result="shape"/>
</filter>
<filter id="filter3_d_210_12" x="986" y="468" width="204" height="149" filterUnits="userSpaceOnUse" color-interpolation-filters="sRGB">
<feFlood flood-opacity="0" result="BackgroundImageFix"/>
<feColorMatrix in="SourceAlpha" type="matrix" values="0 0 0 0 0 0 0 0 0 0 0 0 0 0 0 0 0 0 127 0" result="hardAlpha"/>
<feOffset dy="4"/>
<feGaussianBlur stdDeviation="2"/>
<feComposite in2="hardAlpha" operator="out"/>
<feColorMatrix type="matrix" values="0 0 0 0 0 0 0 0 0 0 0 0 0 0 0 0 0 0 0.25 0"/>
<feBlend mode="normal" in2="BackgroundImageFix" result="effect1_dropShadow_210_12"/>
<feBlend mode="normal" in="SourceGraphic" in2="effect1_dropShadow_210_12" result="shape"/>
</filter>
<filter id="filter4_d_210_12" x="986" y="639" width="204" height="149" filterUnits="userSpaceOnUse" color-interpolation-filters="sRGB">
<feFlood flood-opacity="0" result="BackgroundImageFix"/>
<feColorMatrix in="SourceAlpha" type="matrix" values="0 0 0 0 0 0 0 0 0 0 0 0 0 0 0 0 0 0 127 0" result="hardAlpha"/>
<feOffset dy="4"/>
<feGaussianBlur stdDeviation="2"/>
<feComposite in2="hardAlpha" operator="out"/>
<feColorMatrix type="matrix" values="0 0 0 0 0 0 0 0 0 0 0 0 0 0 0 0 0 0 0.25 0"/>
<feBlend mode="normal" in2="BackgroundImageFix" result="effect1_dropShadow_210_12"/>
<feBlend mode="normal" in="SourceGraphic" in2="effect1_dropShadow_210_12" result="shape"/>
</filter>
<filter id="filter5_d_210_12" x="986" y="810" width="204" height="149" filterUnits="userSpaceOnUse" color-interpolation-filters="sRGB">
<feFlood flood-opacity="0" result="BackgroundImageFix"/>
<feColorMatrix in="SourceAlpha" type="matrix" values="0 0 0 0 0 0 0 0 0 0 0 0 0 0 0 0 0 0 127 0" result="hardAlpha"/>
<feOffset dy="4"/>
<feGaussianBlur stdDeviation="2"/>
<feComposite in2="hardAlpha" operator="out"/>
<feColorMatrix type="matrix" values="0 0 0 0 0 0 0 0 0 0 0 0 0 0 0 0 0 0 0.25 0"/>
<feBlend mode="normal" in2="BackgroundImageFix" result="effect1_dropShadow_210_12"/>
<feBlend mode="normal" in="SourceGraphic" in2="effect1_dropShadow_210_12" result="shape"/>
</filter>
<filter id="filter6_d_210_12" x="509" y="639" width="204" height="149" filterUnits="userSpaceOnUse" color-interpolation-filters="sRGB">
<feFlood flood-opacity="0" result="BackgroundImageFix"/>
<feColorMatrix in="SourceAlpha" type="matrix" values="0 0 0 0 0 0 0 0 0 0 0 0 0 0 0 0 0 0 127 0" result="hardAlpha"/>
<feOffset dy="4"/>
<feGaussianBlur stdDeviation="2"/>
<feComposite in2="hardAlpha" operator="out"/>
<feColorMatrix type="matrix" values="0 0 0 0 0 0 0 0 0 0 0 0 0 0 0 0 0 0 0.25 0"/>
<feBlend mode="normal" in2="BackgroundImageFix" result="effect1_dropShadow_210_12"/>
<feBlend mode="normal" in="SourceGraphic" in2="effect1_dropShadow_210_12" result="shape"/>
</filter>
<filter id="filter7_d_210_12" x="509" y="810" width="204" height="149" filterUnits="userSpaceOnUse" color-interpolation-filters="sRGB">
<feFlood flood-opacity="0" result="BackgroundImageFix"/>
<feColorMatrix in="SourceAlpha" type="matrix" values="0 0 0 0 0 0 0 0 0 0 0 0 0 0 0 0 0 0 127 0" result="hardAlpha"/>
<feOffset dy="4"/>
<feGaussianBlur stdDeviation="2"/>
<feComposite in2="hardAlpha" operator="out"/>
<feColorMatrix type="matrix" values="0 0 0 0 0 0 0 0 0 0 0 0 0 0 0 0 0 0 0.25 0"/>
<feBlend mode="normal" in2="BackgroundImageFix" result="effect1_dropShadow_210_12"/>
<feBlend mode="normal" in="SourceGraphic" in2="effect1_dropShadow_210_12" result="shape"/>
</filter>
<filter id="filter8_d_210_12" x="736" y="468" width="204" height="149" filterUnits="userSpaceOnUse" color-interpolation-filters="sRGB">
<feFlood flood-opacity="0" result="BackgroundImageFix"/>
<feColorMatrix in="SourceAlpha" type="matrix" values="0 0 0 0 0 0 0 0 0 0 0 0 0 0 0 0 0 0 127 0" result="hardAlpha"/>
<feOffset dy="4"/>
<feGaussianBlur stdDeviation="2"/>
<feComposite in2="hardAlpha" operator="out"/>
<feColorMatrix type="matrix" values="0 0 0 0 0 0 0 0 0 0 0 0 0 0 0 0 0 0 0.25 0"/>
<feBlend mode="normal" in2="BackgroundImageFix" result="effect1_dropShadow_210_12"/>
<feBlend mode="normal" in="SourceGraphic" in2="effect1_dropShadow_210_12" result="shape"/>
</filter>
<filter id="filter9_d_210_12" x="736" y="468" width="204" height="149" filterUnits="userSpaceOnUse" color-interpolation-filters="sRGB">
<feFlood flood-opacity="0" result="BackgroundImageFix"/>
<feColorMatrix in="SourceAlpha" type="matrix" values="0 0 0 0 0 0 0 0 0 0 0 0 0 0 0 0 0 0 127 0" result="hardAlpha"/>
<feOffset dy="4"/>
<feGaussianBlur stdDeviation="2"/>
<feComposite in2="hardAlpha" operator="out"/>
<feColorMatrix type="matrix" values="0 0 0 0 0 0 0 0 0 0 0 0 0 0 0 0 0 0 0.25 0"/>
<feBlend mode="normal" in2="BackgroundImageFix" result="effect1_dropShadow_210_12"/>
<feBlend mode="normal" in="SourceGraphic" in2="effect1_dropShadow_210_12" result="shape"/>
</filter>
<filter id="filter10_d_210_12" x="736" y="639" width="204" height="149" filterUnits="userSpaceOnUse" color-interpolation-filters="sRGB">
<feFlood flood-opacity="0" result="BackgroundImageFix"/>
<feColorMatrix in="SourceAlpha" type="matrix" values="0 0 0 0 0 0 0 0 0 0 0 0 0 0 0 0 0 0 127 0" result="hardAlpha"/>
<feOffset dy="4"/>
<feGaussianBlur stdDeviation="2"/>
<feComposite in2="hardAlpha" operator="out"/>
<feColorMatrix type="matrix" values="0 0 0 0 0 0 0 0 0 0 0 0 0 0 0 0 0 0 0.25 0"/>
<feBlend mode="normal" in2="BackgroundImageFix" result="effect1_dropShadow_210_12"/>
<feBlend mode="normal" in="SourceGraphic" in2="effect1_dropShadow_210_12" result="shape"/>
</filter>
<filter id="filter11_d_210_12" x="736" y="639" width="204" height="149" filterUnits="userSpaceOnUse" color-interpolation-filters="sRGB">
<feFlood flood-opacity="0" result="BackgroundImageFix"/>
<feColorMatrix in="SourceAlpha" type="matrix" values="0 0 0 0 0 0 0 0 0 0 0 0 0 0 0 0 0 0 127 0" result="hardAlpha"/>
<feOffset dy="4"/>
<feGaussianBlur stdDeviation="2"/>
<feComposite in2="hardAlpha" operator="out"/>
<feColorMatrix type="matrix" values="0 0 0 0 0 0 0 0 0 0 0 0 0 0 0 0 0 0 0.25 0"/>
<feBlend mode="normal" in2="BackgroundImageFix" result="effect1_dropShadow_210_12"/>
<feBlend mode="normal" in="SourceGraphic" in2="effect1_dropShadow_210_12" result="shape"/>
</filter>
<filter id="filter12_d_210_12" x="736" y="810" width="204" height="149" filterUnits="userSpaceOnUse" color-interpolation-filters="sRGB">
<feFlood flood-opacity="0" result="BackgroundImageFix"/>
<feColorMatrix in="SourceAlpha" type="matrix" values="0 0 0 0 0 0 0 0 0 0 0 0 0 0 0 0 0 0 127 0" result="hardAlpha"/>
<feOffset dy="4"/>
<feGaussianBlur stdDeviation="2"/>
<feComposite in2="hardAlpha" operator="out"/>
<feColorMatrix type="matrix" values="0 0 0 0 0 0 0 0 0 0 0 0 0 0 0 0 0 0 0.25 0"/>
<feBlend mode="normal" in2="BackgroundImageFix" result="effect1_dropShadow_210_12"/>
<feBlend mode="normal" in="SourceGraphic" in2="effect1_dropShadow_210_12" result="shape"/>
</filter>
<filter id="filter13_d_210_12" x="736" y="810" width="204" height="149" filterUnits="userSpaceOnUse" color-interpolation-filters="sRGB">
<feFlood flood-opacity="0" result="BackgroundImageFix"/>
<feColorMatrix in="SourceAlpha" type="matrix" values="0 0 0 0 0 0 0 0 0 0 0 0 0 0 0 0 0 0 127 0" result="hardAlpha"/>
<feOffset dy="4"/>
<feGaussianBlur stdDeviation="2"/>
<feComposite in2="hardAlpha" operator="out"/>
<feColorMatrix type="matrix" values="0 0 0 0 0 0 0 0 0 0 0 0 0 0 0 0 0 0 0.25 0"/>
<feBlend mode="normal" in2="BackgroundImageFix" result="effect1_dropShadow_210_12"/>
<feBlend mode="normal" in="SourceGraphic" in2="effect1_dropShadow_210_12" result="shape"/>
</filter>
<filter id="filter14_d_210_12" x="425" y="48" width="818" height="269" filterUnits="userSpaceOnUse" color-interpolation-filters="sRGB">
<feFlood flood-opacity="0" result="BackgroundImageFix"/>
<feColorMatrix in="SourceAlpha" type="matrix" values="0 0 0 0 0 0 0 0 0 0 0 0 0 0 0 0 0 0 127 0" result="hardAlpha"/>
<feOffset dy="18"/>
<feGaussianBlur stdDeviation="2"/>
<feComposite in2="hardAlpha" operator="out"/>
<feColorMatrix type="matrix" values="0 0 0 0 0 0 0 0 0 0 0 0 0 0 0 0 0 0 0.25 0"/>
<feBlend mode="normal" in2="BackgroundImageFix" result="effect1_dropShadow_210_12"/>
<feBlend mode="normal" in="SourceGraphic" in2="effect1_dropShadow_210_12" result="shape"/>
</filter>
</defs>
</svg>
